<svg width="1500" height="1595" viewBox="0 0 1500 1595" fill="none" xmlns="http://www.w3.org/2000/svg">
<g filter="url(#filter0_d)">
<mask id="path-1-inside-1" fill="white">
<path d="M0 0H1500V1587L750 1509.63L0 1432.27V0Z"/>
</mask>
<path d="M0 0H1500V1587L750 1509.63L0 1432.27V0Z" fill="white"/>
<path d="M0 0V-1H-1V0H0ZM1500 0H1501V-1H1500V0ZM1500 1587L1499.9 1587.99L1501 1588.11V1587H1500ZM0 1432.27H-1V1433.17L-0.10261 1433.26L0 1432.27ZM0 1H1500V-1H0V1ZM1499 0V1587H1501V0H1499ZM1 1432.27V0H-1V1432.27H1ZM1500.1 1586.01L750.103 1508.64L749.897 1510.63L1499.9 1587.99L1500.1 1586.01ZM750.103 1508.64L0.10261 1431.27L-0.10261 1433.26L749.897 1510.63L750.103 1508.64Z" fill="black" mask="url(#path-1-inside-1)"/>
</g>
<defs>
<filter id="filter0_d" x="-4" y="0" width="1508" height="1595" filterUnits="userSpaceOnUse" color-interpolation-filters="sRGB">
<feFlood flood-opacity="0" result="BackgroundImageFix"/>
<feColorMatrix in="SourceAlpha" type="matrix" values="0 0 0 0 0 0 0 0 0 0 0 0 0 0 0 0 0 0 127 0"/>
<feOffset dy="4"/>
<feGaussianBlur stdDeviation="2"/>
<feColorMatrix type="matrix" values="0 0 0 0 0 0 0 0 0 0 0 0 0 0 0 0 0 0 0.25 0"/>
<feBlend mode="normal" in2="BackgroundImageFix" result="effect1_dropShadow"/>
<feBlend mode="normal" in="SourceGraphic" in2="effect1_dropShadow" result="shape"/>
</filter>
</defs>
</svg>
