<svg width="1448" height="1595" viewBox="0 0 1448 1595" fill="none" xmlns="http://www.w3.org/2000/svg">
<g filter="url(#filter0_d)">
<mask id="path-1-inside-1" fill="white">
<path d="M4 0H1444V1587L724 1509.63L4 1432.27V0Z"/>
</mask>
<path d="M4 0H1444V1587L724 1509.63L4 1432.27V0Z" fill="white"/>
<path d="M4 0V-1H3V0H4ZM1444 0H1445V-1H1444V0ZM1444 1587L1443.89 1587.99L1445 1588.11V1587H1444ZM4 1432.27H3V1433.17L3.89316 1433.26L4 1432.27ZM4 1H1444V-1H4V1ZM1443 0V1587H1445V0H1443ZM5 1432.27V0H3V1432.27H5ZM1444.11 1586.01L724.107 1508.64L723.893 1510.63L1443.89 1587.99L1444.11 1586.01ZM724.107 1508.64L4.10684 1431.27L3.89316 1433.26L723.893 1510.63L724.107 1508.64Z" fill="black" mask="url(#path-1-inside-1)"/>
</g>
<defs>
<filter id="filter0_d" x="0" y="0" width="1448" height="1595" filterUnits="userSpaceOnUse" color-interpolation-filters="sRGB">
<feFlood flood-opacity="0" result="BackgroundImageFix"/>
<feColorMatrix in="SourceAlpha" type="matrix" values="0 0 0 0 0 0 0 0 0 0 0 0 0 0 0 0 0 0 127 0"/>
<feOffset dy="4"/>
<feGaussianBlur stdDeviation="2"/>
<feColorMatrix type="matrix" values="0 0 0 0 0 0 0 0 0 0 0 0 0 0 0 0 0 0 0.25 0"/>
<feBlend mode="normal" in2="BackgroundImageFix" result="effect1_dropShadow"/>
<feBlend mode="normal" in="SourceGraphic" in2="effect1_dropShadow" result="shape"/>
</filter>
</defs>
</svg>
