<svg width="1508" height="1595" viewBox="0 0 1508 1595" fill="none" xmlns="http://www.w3.org/2000/svg">
<g filter="url(#filter0_d)">
<mask id="path-1-inside-1" fill="white">
<path d="M4 0H1504V1587L754 1509.63L4 1432.27V0Z"/>
</mask>
<path d="M4 0H1504V1587L754 1509.63L4 1432.27V0Z" fill="white"/>
<path d="M4 0V-1H3V0H4ZM1504 0H1505V-1H1504V0ZM1504 1587L1503.9 1587.99L1505 1588.11V1587H1504ZM4 1432.27H3V1433.17L3.89739 1433.26L4 1432.27ZM4 1H1504V-1H4V1ZM1503 0V1587H1505V0H1503ZM5 1432.27V0H3V1432.27H5ZM1504.1 1586.01L754.103 1508.64L753.897 1510.63L1503.9 1587.99L1504.1 1586.01ZM754.103 1508.64L4.10261 1431.27L3.89739 1433.26L753.897 1510.63L754.103 1508.64Z" fill="black" mask="url(#path-1-inside-1)"/>
</g>
<defs>
<filter id="filter0_d" x="0" y="0" width="1508" height="1595" filterUnits="userSpaceOnUse" color-interpolation-filters="sRGB">
<feFlood flood-opacity="0" result="BackgroundImageFix"/>
<feColorMatrix in="SourceAlpha" type="matrix" values="0 0 0 0 0 0 0 0 0 0 0 0 0 0 0 0 0 0 127 0"/>
<feOffset dy="4"/>
<feGaussianBlur stdDeviation="2"/>
<feColorMatrix type="matrix" values="0 0 0 0 0 0 0 0 0 0 0 0 0 0 0 0 0 0 0.25 0"/>
<feBlend mode="normal" in2="BackgroundImageFix" result="effect1_dropShadow"/>
<feBlend mode="normal" in="SourceGraphic" in2="effect1_dropShadow" result="shape"/>
</filter>
</defs>
</svg>
