<svg width="1440" height="1595" viewBox="0 0 1440 1595" fill="none" xmlns="http://www.w3.org/2000/svg">
<g filter="url(#filter0_d)">
<mask id="path-1-inside-1" fill="white">
<path d="M0 0H1440V1587L720 1509.63L0 1432.27V0Z"/>
</mask>
<path d="M0 0H1440V1587L720 1509.63L0 1432.27V0Z" fill="white"/>
<path d="M0 0V-1H-1V0H0ZM1440 0H1441V-1H1440V0ZM1440 1587L1439.89 1587.99L1441 1588.11V1587H1440ZM0 1432.27H-1V1433.17L-0.106837 1433.26L0 1432.27ZM0 1H1440V-1H0V1ZM1439 0V1587H1441V0H1439ZM1 1432.27V0H-1V1432.27H1ZM1440.11 1586.01L720.107 1508.64L719.893 1510.63L1439.89 1587.99L1440.11 1586.01ZM720.107 1508.64L0.106837 1431.27L-0.106837 1433.26L719.893 1510.63L720.107 1508.64Z" fill="black" mask="url(#path-1-inside-1)"/>
</g>
<defs>
<filter id="filter0_d" x="-4" y="0" width="1448" height="1595" filterUnits="userSpaceOnUse" color-interpolation-filters="sRGB">
<feFlood flood-opacity="0" result="BackgroundImageFix"/>
<feColorMatrix in="SourceAlpha" type="matrix" values="0 0 0 0 0 0 0 0 0 0 0 0 0 0 0 0 0 0 127 0"/>
<feOffset dy="4"/>
<feGaussianBlur stdDeviation="2"/>
<feColorMatrix type="matrix" values="0 0 0 0 0 0 0 0 0 0 0 0 0 0 0 0 0 0 0.25 0"/>
<feBlend mode="normal" in2="BackgroundImageFix" result="effect1_dropShadow"/>
<feBlend mode="normal" in="SourceGraphic" in2="effect1_dropShadow" result="shape"/>
</filter>
</defs>
</svg>
