<svg width="15" height="10" viewBox="0 0 15 10" fill="none" xmlns="http://www.w3.org/2000/svg">
<path fill-rule="evenodd" clip-rule="evenodd" d="M13.9071 0.293031C14.0946 0.480558 14.1999 0.734866 14.1999 1.00003C14.1999 1.26519 14.0946 1.5195 13.9071 1.70703L5.90711 9.70703C5.71959 9.8945 5.46528 9.99982 5.20011 9.99982C4.93495 9.99982 4.68064 9.8945 4.49311 9.70703L0.493114 5.70703C0.310956 5.51843 0.210162 5.26583 0.21244 5.00363C0.214719 4.74143 0.319888 4.49062 0.505296 4.30521C0.690704 4.1198 0.941516 4.01464 1.20371 4.01236C1.46591 4.01008 1.71851 4.11087 1.90711 4.29303L5.20011 7.58603L12.4931 0.293031C12.6806 0.10556 12.9349 0.000244141 13.2001 0.000244141C13.4653 0.000244141 13.7196 0.10556 13.9071 0.293031Z" fill="black"/>
</svg>
