<svg width="15" height="10" viewBox="0 0 15 10" fill="none" xmlns="http://www.w3.org/2000/svg">
<path fill-rule="evenodd" clip-rule="evenodd" d="M14.641 0.293031C14.8285 0.480558 14.9338 0.734866 14.9338 1.00003C14.9338 1.26519 14.8285 1.5195 14.641 1.70703L6.641 9.70703C6.45347 9.8945 6.19917 9.99982 5.934 9.99982C5.66884 9.99982 5.41453 9.8945 5.227 9.70703L1.227 5.70703C1.04484 5.51843 0.944048 5.26583 0.946327 5.00363C0.948605 4.74143 1.05377 4.49062 1.23918 4.30521C1.42459 4.1198 1.6754 4.01464 1.9376 4.01236C2.1998 4.01008 2.4524 4.11087 2.641 4.29303L5.934 7.58603L13.227 0.293031C13.4145 0.10556 13.6688 0.000244141 13.934 0.000244141C14.1992 0.000244141 14.4535 0.10556 14.641 0.293031Z" fill="black"/>
</svg>
