<svg width="20" height="18" viewBox="0 0 20 18" fill="none" xmlns="http://www.w3.org/2000/svg">
<path d="M5.00049 5H15.0005H5.00049ZM5.00049 9H9.00049H5.00049ZM10.0005 17L6.00049 13H3.00049C2.47006 13 1.96135 12.7893 1.58627 12.4142C1.2112 12.0391 1.00049 11.5304 1.00049 11V3C1.00049 2.46957 1.2112 1.96086 1.58627 1.58579C1.96135 1.21071 2.47006 1 3.00049 1H17.0005C17.5309 1 18.0396 1.21071 18.4147 1.58579C18.7898 1.96086 19.0005 2.46957 19.0005 3V11C19.0005 11.5304 18.7898 12.0391 18.4147 12.4142C18.0396 12.7893 17.5309 13 17.0005 13H14.0005L10.0005 17Z" stroke="black" stroke-width="2" stroke-linecap="round" stroke-linejoin="round"/>
</svg>
