<svg width="20" height="16" viewBox="0 0 20 16" fill="none" xmlns="http://www.w3.org/2000/svg">
<path d="M1.00049 4L8.89049 9.26C9.21915 9.47928 9.60539 9.5963 10.0005 9.5963C10.3956 9.5963 10.7818 9.47928 11.1105 9.26L19.0005 4H1.00049ZM3.00049 15H17.0005C17.5309 15 18.0396 14.7893 18.4147 14.4142C18.7898 14.0391 19.0005 13.5304 19.0005 13V3C19.0005 2.46957 18.7898 1.96086 18.4147 1.58579C18.0396 1.21071 17.5309 1 17.0005 1H3.00049C2.47006 1 1.96135 1.21071 1.58627 1.58579C1.2112 1.96086 1.00049 2.46957 1.00049 3V13C1.00049 13.5304 1.2112 14.0391 1.58627 14.4142C1.96135 14.7893 2.47006 15 3.00049 15Z" stroke="black" stroke-width="2" stroke-linecap="round" stroke-linejoin="round"/>
</svg>
