<svg fill="none" xmlns="http://www.w3.org/2000/svg" viewBox="0 0 413 412">
  <g filter="url(#g-2Nd0dD5a)">
    <mask id="g-2Nd0dD5b" fill="#fff">
      <path d="M4.5 0h4v4h-4V0zm20 0h4v4h-4V0zm20 0h4v4h-4V0zm20 0h4v4h-4V0zm20 0h4v4h-4V0zm20 0h4v4h-4V0zm20 0h4v4h-4V0zm20 0h4v4h-4V0zm20 0h4v4h-4V0zm20 0h4v4h-4V0zm20 0h4v4h-4V0zm20 0h4v4h-4V0zm20 0h4v4h-4V0zm20 0h4v4h-4V0zm20 0h4v4h-4V0zm20 0h4v4h-4V0zm20 0h4v4h-4V0zm20 0h4v4h-4V0zm20 0h4v4h-4V0zm20 0h4v4h-4V0zm20 0h4v4h-4V0zM4.5 20h4v4h-4v-4zm20 0h4v4h-4v-4zm20 0h4v4h-4v-4zm20 0h4v4h-4v-4zm20 0h4v4h-4v-4zm20 0h4v4h-4v-4zm20 0h4v4h-4v-4zm20 0h4v4h-4v-4zm20 0h4v4h-4v-4zm20 0h4v4h-4v-4zm20 0h4v4h-4v-4zm20 0h4v4h-4v-4zm20 0h4v4h-4v-4zm20 0h4v4h-4v-4zm20 0h4v4h-4v-4zm20 0h4v4h-4v-4zm20 0h4v4h-4v-4zm20 0h4v4h-4v-4zm20 0h4v4h-4v-4zm20 0h4v4h-4v-4zm20 0h4v4h-4v-4zM4.5 40h4v4h-4v-4zm20 0h4v4h-4v-4zm20 0h4v4h-4v-4zm20 0h4v4h-4v-4zm20 0h4v4h-4v-4zm20 0h4v4h-4v-4zm20 0h4v4h-4v-4zm20 0h4v4h-4v-4zm20 0h4v4h-4v-4zm20 0h4v4h-4v-4zm20 0h4v4h-4v-4zm20 0h4v4h-4v-4zm20 0h4v4h-4v-4zm20 0h4v4h-4v-4zm20 0h4v4h-4v-4zm20 0h4v4h-4v-4zm20 0h4v4h-4v-4zm20 0h4v4h-4v-4zm20 0h4v4h-4v-4zm20 0h4v4h-4v-4zm20 0h4v4h-4v-4zM4.5 60h4v4h-4v-4zm20 0h4v4h-4v-4zm20 0h4v4h-4v-4zm20 0h4v4h-4v-4zm20 0h4v4h-4v-4zm20 0h4v4h-4v-4zm20 0h4v4h-4v-4zm20 0h4v4h-4v-4zm20 0h4v4h-4v-4zm20 0h4v4h-4v-4zm20 0h4v4h-4v-4zm20 0h4v4h-4v-4zm20 0h4v4h-4v-4zm20 0h4v4h-4v-4zm20 0h4v4h-4v-4zm20 0h4v4h-4v-4zm20 0h4v4h-4v-4zm20 0h4v4h-4v-4zm20 0h4v4h-4v-4zm20 0h4v4h-4v-4zm20 0h4v4h-4v-4zM4.5 80h4v4h-4v-4zm20 0h4v4h-4v-4zm20 0h4v4h-4v-4zm20 0h4v4h-4v-4zm20 0h4v4h-4v-4zm20 0h4v4h-4v-4zm20 0h4v4h-4v-4zm20 0h4v4h-4v-4zm20 0h4v4h-4v-4zm20 0h4v4h-4v-4zm20 0h4v4h-4v-4zm20 0h4v4h-4v-4zm20 0h4v4h-4v-4zm20 0h4v4h-4v-4zm20 0h4v4h-4v-4zm20 0h4v4h-4v-4zm20 0h4v4h-4v-4zm20 0h4v4h-4v-4zm20 0h4v4h-4v-4zm20 0h4v4h-4v-4zm20 0h4v4h-4v-4zm-400 20h4v4h-4v-4zm20 0h4v4h-4v-4zm20 0h4v4h-4v-4zm20 0h4v4h-4v-4zm20 0h4v4h-4v-4zm20 0h4v4h-4v-4zm20 0h4v4h-4v-4zm20 0h4v4h-4v-4zm20 0h4v4h-4v-4zm20 0h4v4h-4v-4zm20 0h4v4h-4v-4zm20 0h4v4h-4v-4zm20 0h4v4h-4v-4zm20 0h4v4h-4v-4zm20 0h4v4h-4v-4zm20 0h4v4h-4v-4zm20 0h4v4h-4v-4zm20 0h4v4h-4v-4zm20 0h4v4h-4v-4zm20 0h4v4h-4v-4zm20 0h4v4h-4v-4zm-400 20h4v4h-4v-4zm20 0h4v4h-4v-4zm20 0h4v4h-4v-4zm20 0h4v4h-4v-4zm20 0h4v4h-4v-4zm20 0h4v4h-4v-4zm20 0h4v4h-4v-4zm20 0h4v4h-4v-4zm20 0h4v4h-4v-4zm20 0h4v4h-4v-4zm20 0h4v4h-4v-4zm20 0h4v4h-4v-4zm20 0h4v4h-4v-4zm20 0h4v4h-4v-4zm20 0h4v4h-4v-4zm20 0h4v4h-4v-4zm20 0h4v4h-4v-4zm20 0h4v4h-4v-4zm20 0h4v4h-4v-4zm20 0h4v4h-4v-4zm20 0h4v4h-4v-4zm-400 20h4v4h-4v-4zm20 0h4v4h-4v-4zm20 0h4v4h-4v-4zm20 0h4v4h-4v-4zm20 0h4v4h-4v-4zm20 0h4v4h-4v-4zm20 0h4v4h-4v-4zm20 0h4v4h-4v-4zm20 0h4v4h-4v-4zm20 0h4v4h-4v-4zm20 0h4v4h-4v-4zm20 0h4v4h-4v-4zm20 0h4v4h-4v-4zm20 0h4v4h-4v-4zm20 0h4v4h-4v-4zm20 0h4v4h-4v-4zm20 0h4v4h-4v-4zm20 0h4v4h-4v-4zm20 0h4v4h-4v-4zm20 0h4v4h-4v-4zm20 0h4v4h-4v-4zm-400 20h4v4h-4v-4zm20 0h4v4h-4v-4zm20 0h4v4h-4v-4zm20 0h4v4h-4v-4zm20 0h4v4h-4v-4zm20 0h4v4h-4v-4zm20 0h4v4h-4v-4zm20 0h4v4h-4v-4zm20 0h4v4h-4v-4zm20 0h4v4h-4v-4zm20 0h4v4h-4v-4zm20 0h4v4h-4v-4zm20 0h4v4h-4v-4zm20 0h4v4h-4v-4zm20 0h4v4h-4v-4zm20 0h4v4h-4v-4zm20 0h4v4h-4v-4zm20 0h4v4h-4v-4zm20 0h4v4h-4v-4zm20 0h4v4h-4v-4zm20 0h4v4h-4v-4zm-400 20h4v4h-4v-4zm20 0h4v4h-4v-4zm20 0h4v4h-4v-4zm20 0h4v4h-4v-4zm20 0h4v4h-4v-4zm20 0h4v4h-4v-4zm20 0h4v4h-4v-4zm20 0h4v4h-4v-4zm20 0h4v4h-4v-4zm20 0h4v4h-4v-4zm20 0h4v4h-4v-4zm20 0h4v4h-4v-4zm20 0h4v4h-4v-4zm20 0h4v4h-4v-4zm20 0h4v4h-4v-4zm20 0h4v4h-4v-4zm20 0h4v4h-4v-4zm20 0h4v4h-4v-4zm20 0h4v4h-4v-4zm20 0h4v4h-4v-4zm20 0h4v4h-4v-4zm-400 20h4v4h-4v-4zm20 0h4v4h-4v-4zm20 0h4v4h-4v-4zm20 0h4v4h-4v-4zm20 0h4v4h-4v-4zm20 0h4v4h-4v-4zm20 0h4v4h-4v-4zm20 0h4v4h-4v-4zm20 0h4v4h-4v-4zm20 0h4v4h-4v-4zm20 0h4v4h-4v-4zm20 0h4v4h-4v-4zm20 0h4v4h-4v-4zm20 0h4v4h-4v-4zm20 0h4v4h-4v-4zm20 0h4v4h-4v-4zm20 0h4v4h-4v-4zm20 0h4v4h-4v-4zm20 0h4v4h-4v-4zm20 0h4v4h-4v-4zm20 0h4v4h-4v-4zm-400 20h4v4h-4v-4zm20 0h4v4h-4v-4zm20 0h4v4h-4v-4zm20 0h4v4h-4v-4zm20 0h4v4h-4v-4zm20 0h4v4h-4v-4zm20 0h4v4h-4v-4zm20 0h4v4h-4v-4zm20 0h4v4h-4v-4zm20 0h4v4h-4v-4zm20 0h4v4h-4v-4zm20 0h4v4h-4v-4zm20 0h4v4h-4v-4zm20 0h4v4h-4v-4zm20 0h4v4h-4v-4zm20 0h4v4h-4v-4zm20 0h4v4h-4v-4zm20 0h4v4h-4v-4zm20 0h4v4h-4v-4zm20 0h4v4h-4v-4zm20 0h4v4h-4v-4zm-400 20h4v4h-4v-4zm20 0h4v4h-4v-4zm20 0h4v4h-4v-4zm20 0h4v4h-4v-4zm20 0h4v4h-4v-4zm20 0h4v4h-4v-4zm20 0h4v4h-4v-4zm20 0h4v4h-4v-4zm20 0h4v4h-4v-4zm20 0h4v4h-4v-4zm20 0h4v4h-4v-4zm20 0h4v4h-4v-4zm20 0h4v4h-4v-4zm20 0h4v4h-4v-4zm20 0h4v4h-4v-4zm20 0h4v4h-4v-4zm20 0h4v4h-4v-4zm20 0h4v4h-4v-4zm20 0h4v4h-4v-4zm20 0h4v4h-4v-4zm20 0h4v4h-4v-4zm-400 20h4v4h-4v-4zm20 0h4v4h-4v-4zm20 0h4v4h-4v-4zm20 0h4v4h-4v-4zm20 0h4v4h-4v-4zm20 0h4v4h-4v-4zm20 0h4v4h-4v-4zm20 0h4v4h-4v-4zm20 0h4v4h-4v-4zm20 0h4v4h-4v-4zm20 0h4v4h-4v-4zm20 0h4v4h-4v-4zm20 0h4v4h-4v-4zm20 0h4v4h-4v-4zm20 0h4v4h-4v-4zm20 0h4v4h-4v-4zm20 0h4v4h-4v-4zm20 0h4v4h-4v-4zm20 0h4v4h-4v-4zm20 0h4v4h-4v-4zm20 0h4v4h-4v-4zm-400 20h4v4h-4v-4zm20 0h4v4h-4v-4zm20 0h4v4h-4v-4zm20 0h4v4h-4v-4zm20 0h4v4h-4v-4zm20 0h4v4h-4v-4zm20 0h4v4h-4v-4zm20 0h4v4h-4v-4zm20 0h4v4h-4v-4zm20 0h4v4h-4v-4zm20 0h4v4h-4v-4zm20 0h4v4h-4v-4zm20 0h4v4h-4v-4zm20 0h4v4h-4v-4zm20 0h4v4h-4v-4zm20 0h4v4h-4v-4zm20 0h4v4h-4v-4zm20 0h4v4h-4v-4zm20 0h4v4h-4v-4zm20 0h4v4h-4v-4zm20 0h4v4h-4v-4zm-400 20h4v4h-4v-4zm20 0h4v4h-4v-4zm20 0h4v4h-4v-4zm20 0h4v4h-4v-4zm20 0h4v4h-4v-4zm20 0h4v4h-4v-4zm20 0h4v4h-4v-4zm20 0h4v4h-4v-4zm20 0h4v4h-4v-4zm20 0h4v4h-4v-4zm20 0h4v4h-4v-4zm20 0h4v4h-4v-4zm20 0h4v4h-4v-4zm20 0h4v4h-4v-4zm20 0h4v4h-4v-4zm20 0h4v4h-4v-4zm20 0h4v4h-4v-4zm20 0h4v4h-4v-4zm20 0h4v4h-4v-4zm20 0h4v4h-4v-4zm20 0h4v4h-4v-4zm-400 20h4v4h-4v-4zm20 0h4v4h-4v-4zm20 0h4v4h-4v-4zm20 0h4v4h-4v-4zm20 0h4v4h-4v-4zm20 0h4v4h-4v-4zm20 0h4v4h-4v-4zm20 0h4v4h-4v-4zm20 0h4v4h-4v-4zm20 0h4v4h-4v-4zm20 0h4v4h-4v-4zm20 0h4v4h-4v-4zm20 0h4v4h-4v-4zm20 0h4v4h-4v-4zm20 0h4v4h-4v-4zm20 0h4v4h-4v-4zm20 0h4v4h-4v-4zm20 0h4v4h-4v-4zm20 0h4v4h-4v-4zm20 0h4v4h-4v-4zm20 0h4v4h-4v-4zm-400 20h4v4h-4v-4zm20 0h4v4h-4v-4zm20 0h4v4h-4v-4zm20 0h4v4h-4v-4zm20 0h4v4h-4v-4zm20 0h4v4h-4v-4zm20 0h4v4h-4v-4zm20 0h4v4h-4v-4zm20 0h4v4h-4v-4zm20 0h4v4h-4v-4zm20 0h4v4h-4v-4zm20 0h4v4h-4v-4zm20 0h4v4h-4v-4zm20 0h4v4h-4v-4zm20 0h4v4h-4v-4zm20 0h4v4h-4v-4zm20 0h4v4h-4v-4zm20 0h4v4h-4v-4zm20 0h4v4h-4v-4zm20 0h4v4h-4v-4zm20 0h4v4h-4v-4zm-400 20h4v4h-4v-4zm20 0h4v4h-4v-4zm20 0h4v4h-4v-4zm20 0h4v4h-4v-4zm20 0h4v4h-4v-4zm20 0h4v4h-4v-4zm20 0h4v4h-4v-4zm20 0h4v4h-4v-4zm20 0h4v4h-4v-4zm20 0h4v4h-4v-4zm20 0h4v4h-4v-4zm20 0h4v4h-4v-4zm20 0h4v4h-4v-4zm20 0h4v4h-4v-4zm20 0h4v4h-4v-4zm20 0h4v4h-4v-4zm20 0h4v4h-4v-4zm20 0h4v4h-4v-4zm20 0h4v4h-4v-4zm20 0h4v4h-4v-4zm20 0h4v4h-4v-4zm-400 20h4v4h-4v-4zm20 0h4v4h-4v-4zm20 0h4v4h-4v-4zm20 0h4v4h-4v-4zm20 0h4v4h-4v-4zm20 0h4v4h-4v-4zm20 0h4v4h-4v-4zm20 0h4v4h-4v-4zm20 0h4v4h-4v-4zm20 0h4v4h-4v-4zm20 0h4v4h-4v-4zm20 0h4v4h-4v-4zm20 0h4v4h-4v-4zm20 0h4v4h-4v-4zm20 0h4v4h-4v-4zm20 0h4v4h-4v-4zm20 0h4v4h-4v-4zm20 0h4v4h-4v-4zm20 0h4v4h-4v-4zm20 0h4v4h-4v-4zm20 0h4v4h-4v-4zm-400 20h4v4h-4v-4zm20 0h4v4h-4v-4zm20 0h4v4h-4v-4zm20 0h4v4h-4v-4zm20 0h4v4h-4v-4zm20 0h4v4h-4v-4zm20 0h4v4h-4v-4zm20 0h4v4h-4v-4zm20 0h4v4h-4v-4zm20 0h4v4h-4v-4zm20 0h4v4h-4v-4zm20 0h4v4h-4v-4zm20 0h4v4h-4v-4zm20 0h4v4h-4v-4zm20 0h4v4h-4v-4zm20 0h4v4h-4v-4zm20 0h4v4h-4v-4zm20 0h4v4h-4v-4zm20 0h4v4h-4v-4zm20 0h4v4h-4v-4zm20 0h4v4h-4v-4z"/>
    </mask>
    <path d="M4.5 0h4v4h-4V0zm20 0h4v4h-4V0zm20 0h4v4h-4V0zm20 0h4v4h-4V0zm20 0h4v4h-4V0zm20 0h4v4h-4V0zm20 0h4v4h-4V0zm20 0h4v4h-4V0zm20 0h4v4h-4V0zm20 0h4v4h-4V0zm20 0h4v4h-4V0zm20 0h4v4h-4V0zm20 0h4v4h-4V0zm20 0h4v4h-4V0zm20 0h4v4h-4V0zm20 0h4v4h-4V0zm20 0h4v4h-4V0zm20 0h4v4h-4V0zm20 0h4v4h-4V0zm20 0h4v4h-4V0zm20 0h4v4h-4V0zM4.5 20h4v4h-4v-4zm20 0h4v4h-4v-4zm20 0h4v4h-4v-4zm20 0h4v4h-4v-4zm20 0h4v4h-4v-4zm20 0h4v4h-4v-4zm20 0h4v4h-4v-4zm20 0h4v4h-4v-4zm20 0h4v4h-4v-4zm20 0h4v4h-4v-4zm20 0h4v4h-4v-4zm20 0h4v4h-4v-4zm20 0h4v4h-4v-4zm20 0h4v4h-4v-4zm20 0h4v4h-4v-4zm20 0h4v4h-4v-4zm20 0h4v4h-4v-4zm20 0h4v4h-4v-4zm20 0h4v4h-4v-4zm20 0h4v4h-4v-4zm20 0h4v4h-4v-4zM4.5 40h4v4h-4v-4zm20 0h4v4h-4v-4zm20 0h4v4h-4v-4zm20 0h4v4h-4v-4zm20 0h4v4h-4v-4zm20 0h4v4h-4v-4zm20 0h4v4h-4v-4zm20 0h4v4h-4v-4zm20 0h4v4h-4v-4zm20 0h4v4h-4v-4zm20 0h4v4h-4v-4zm20 0h4v4h-4v-4zm20 0h4v4h-4v-4zm20 0h4v4h-4v-4zm20 0h4v4h-4v-4zm20 0h4v4h-4v-4zm20 0h4v4h-4v-4zm20 0h4v4h-4v-4zm20 0h4v4h-4v-4zm20 0h4v4h-4v-4zm20 0h4v4h-4v-4zM4.5 60h4v4h-4v-4zm20 0h4v4h-4v-4zm20 0h4v4h-4v-4zm20 0h4v4h-4v-4zm20 0h4v4h-4v-4zm20 0h4v4h-4v-4zm20 0h4v4h-4v-4zm20 0h4v4h-4v-4zm20 0h4v4h-4v-4zm20 0h4v4h-4v-4zm20 0h4v4h-4v-4zm20 0h4v4h-4v-4zm20 0h4v4h-4v-4zm20 0h4v4h-4v-4zm20 0h4v4h-4v-4zm20 0h4v4h-4v-4zm20 0h4v4h-4v-4zm20 0h4v4h-4v-4zm20 0h4v4h-4v-4zm20 0h4v4h-4v-4zm20 0h4v4h-4v-4zM4.5 80h4v4h-4v-4zm20 0h4v4h-4v-4zm20 0h4v4h-4v-4zm20 0h4v4h-4v-4zm20 0h4v4h-4v-4zm20 0h4v4h-4v-4zm20 0h4v4h-4v-4zm20 0h4v4h-4v-4zm20 0h4v4h-4v-4zm20 0h4v4h-4v-4zm20 0h4v4h-4v-4zm20 0h4v4h-4v-4zm20 0h4v4h-4v-4zm20 0h4v4h-4v-4zm20 0h4v4h-4v-4zm20 0h4v4h-4v-4zm20 0h4v4h-4v-4zm20 0h4v4h-4v-4zm20 0h4v4h-4v-4zm20 0h4v4h-4v-4zm20 0h4v4h-4v-4zm-400 20h4v4h-4v-4zm20 0h4v4h-4v-4zm20 0h4v4h-4v-4zm20 0h4v4h-4v-4zm20 0h4v4h-4v-4zm20 0h4v4h-4v-4zm20 0h4v4h-4v-4zm20 0h4v4h-4v-4zm20 0h4v4h-4v-4zm20 0h4v4h-4v-4zm20 0h4v4h-4v-4zm20 0h4v4h-4v-4zm20 0h4v4h-4v-4zm20 0h4v4h-4v-4zm20 0h4v4h-4v-4zm20 0h4v4h-4v-4zm20 0h4v4h-4v-4zm20 0h4v4h-4v-4zm20 0h4v4h-4v-4zm20 0h4v4h-4v-4zm20 0h4v4h-4v-4zm-400 20h4v4h-4v-4zm20 0h4v4h-4v-4zm20 0h4v4h-4v-4zm20 0h4v4h-4v-4zm20 0h4v4h-4v-4zm20 0h4v4h-4v-4zm20 0h4v4h-4v-4zm20 0h4v4h-4v-4zm20 0h4v4h-4v-4zm20 0h4v4h-4v-4zm20 0h4v4h-4v-4zm20 0h4v4h-4v-4zm20 0h4v4h-4v-4zm20 0h4v4h-4v-4zm20 0h4v4h-4v-4zm20 0h4v4h-4v-4zm20 0h4v4h-4v-4zm20 0h4v4h-4v-4zm20 0h4v4h-4v-4zm20 0h4v4h-4v-4zm20 0h4v4h-4v-4zm-400 20h4v4h-4v-4zm20 0h4v4h-4v-4zm20 0h4v4h-4v-4zm20 0h4v4h-4v-4zm20 0h4v4h-4v-4zm20 0h4v4h-4v-4zm20 0h4v4h-4v-4zm20 0h4v4h-4v-4zm20 0h4v4h-4v-4zm20 0h4v4h-4v-4zm20 0h4v4h-4v-4zm20 0h4v4h-4v-4zm20 0h4v4h-4v-4zm20 0h4v4h-4v-4zm20 0h4v4h-4v-4zm20 0h4v4h-4v-4zm20 0h4v4h-4v-4zm20 0h4v4h-4v-4zm20 0h4v4h-4v-4zm20 0h4v4h-4v-4zm20 0h4v4h-4v-4zm-400 20h4v4h-4v-4zm20 0h4v4h-4v-4zm20 0h4v4h-4v-4zm20 0h4v4h-4v-4zm20 0h4v4h-4v-4zm20 0h4v4h-4v-4zm20 0h4v4h-4v-4zm20 0h4v4h-4v-4zm20 0h4v4h-4v-4zm20 0h4v4h-4v-4zm20 0h4v4h-4v-4zm20 0h4v4h-4v-4zm20 0h4v4h-4v-4zm20 0h4v4h-4v-4zm20 0h4v4h-4v-4zm20 0h4v4h-4v-4zm20 0h4v4h-4v-4zm20 0h4v4h-4v-4zm20 0h4v4h-4v-4zm20 0h4v4h-4v-4zm20 0h4v4h-4v-4zm-400 20h4v4h-4v-4zm20 0h4v4h-4v-4zm20 0h4v4h-4v-4zm20 0h4v4h-4v-4zm20 0h4v4h-4v-4zm20 0h4v4h-4v-4zm20 0h4v4h-4v-4zm20 0h4v4h-4v-4zm20 0h4v4h-4v-4zm20 0h4v4h-4v-4zm20 0h4v4h-4v-4zm20 0h4v4h-4v-4zm20 0h4v4h-4v-4zm20 0h4v4h-4v-4zm20 0h4v4h-4v-4zm20 0h4v4h-4v-4zm20 0h4v4h-4v-4zm20 0h4v4h-4v-4zm20 0h4v4h-4v-4zm20 0h4v4h-4v-4zm20 0h4v4h-4v-4zm-400 20h4v4h-4v-4zm20 0h4v4h-4v-4zm20 0h4v4h-4v-4zm20 0h4v4h-4v-4zm20 0h4v4h-4v-4zm20 0h4v4h-4v-4zm20 0h4v4h-4v-4zm20 0h4v4h-4v-4zm20 0h4v4h-4v-4zm20 0h4v4h-4v-4zm20 0h4v4h-4v-4zm20 0h4v4h-4v-4zm20 0h4v4h-4v-4zm20 0h4v4h-4v-4zm20 0h4v4h-4v-4zm20 0h4v4h-4v-4zm20 0h4v4h-4v-4zm20 0h4v4h-4v-4zm20 0h4v4h-4v-4zm20 0h4v4h-4v-4zm20 0h4v4h-4v-4zm-400 20h4v4h-4v-4zm20 0h4v4h-4v-4zm20 0h4v4h-4v-4zm20 0h4v4h-4v-4zm20 0h4v4h-4v-4zm20 0h4v4h-4v-4zm20 0h4v4h-4v-4zm20 0h4v4h-4v-4zm20 0h4v4h-4v-4zm20 0h4v4h-4v-4zm20 0h4v4h-4v-4zm20 0h4v4h-4v-4zm20 0h4v4h-4v-4zm20 0h4v4h-4v-4zm20 0h4v4h-4v-4zm20 0h4v4h-4v-4zm20 0h4v4h-4v-4zm20 0h4v4h-4v-4zm20 0h4v4h-4v-4zm20 0h4v4h-4v-4zm20 0h4v4h-4v-4zm-400 20h4v4h-4v-4zm20 0h4v4h-4v-4zm20 0h4v4h-4v-4zm20 0h4v4h-4v-4zm20 0h4v4h-4v-4zm20 0h4v4h-4v-4zm20 0h4v4h-4v-4zm20 0h4v4h-4v-4zm20 0h4v4h-4v-4zm20 0h4v4h-4v-4zm20 0h4v4h-4v-4zm20 0h4v4h-4v-4zm20 0h4v4h-4v-4zm20 0h4v4h-4v-4zm20 0h4v4h-4v-4zm20 0h4v4h-4v-4zm20 0h4v4h-4v-4zm20 0h4v4h-4v-4zm20 0h4v4h-4v-4zm20 0h4v4h-4v-4zm20 0h4v4h-4v-4zm-400 20h4v4h-4v-4zm20 0h4v4h-4v-4zm20 0h4v4h-4v-4zm20 0h4v4h-4v-4zm20 0h4v4h-4v-4zm20 0h4v4h-4v-4zm20 0h4v4h-4v-4zm20 0h4v4h-4v-4zm20 0h4v4h-4v-4zm20 0h4v4h-4v-4zm20 0h4v4h-4v-4zm20 0h4v4h-4v-4zm20 0h4v4h-4v-4zm20 0h4v4h-4v-4zm20 0h4v4h-4v-4zm20 0h4v4h-4v-4zm20 0h4v4h-4v-4zm20 0h4v4h-4v-4zm20 0h4v4h-4v-4zm20 0h4v4h-4v-4zm20 0h4v4h-4v-4zm-400 20h4v4h-4v-4zm20 0h4v4h-4v-4zm20 0h4v4h-4v-4zm20 0h4v4h-4v-4zm20 0h4v4h-4v-4zm20 0h4v4h-4v-4zm20 0h4v4h-4v-4zm20 0h4v4h-4v-4zm20 0h4v4h-4v-4zm20 0h4v4h-4v-4zm20 0h4v4h-4v-4zm20 0h4v4h-4v-4zm20 0h4v4h-4v-4zm20 0h4v4h-4v-4zm20 0h4v4h-4v-4zm20 0h4v4h-4v-4zm20 0h4v4h-4v-4zm20 0h4v4h-4v-4zm20 0h4v4h-4v-4zm20 0h4v4h-4v-4zm20 0h4v4h-4v-4zm-400 20h4v4h-4v-4zm20 0h4v4h-4v-4zm20 0h4v4h-4v-4zm20 0h4v4h-4v-4zm20 0h4v4h-4v-4zm20 0h4v4h-4v-4zm20 0h4v4h-4v-4zm20 0h4v4h-4v-4zm20 0h4v4h-4v-4zm20 0h4v4h-4v-4zm20 0h4v4h-4v-4zm20 0h4v4h-4v-4zm20 0h4v4h-4v-4zm20 0h4v4h-4v-4zm20 0h4v4h-4v-4zm20 0h4v4h-4v-4zm20 0h4v4h-4v-4zm20 0h4v4h-4v-4zm20 0h4v4h-4v-4zm20 0h4v4h-4v-4zm20 0h4v4h-4v-4zm-400 20h4v4h-4v-4zm20 0h4v4h-4v-4zm20 0h4v4h-4v-4zm20 0h4v4h-4v-4zm20 0h4v4h-4v-4zm20 0h4v4h-4v-4zm20 0h4v4h-4v-4zm20 0h4v4h-4v-4zm20 0h4v4h-4v-4zm20 0h4v4h-4v-4zm20 0h4v4h-4v-4zm20 0h4v4h-4v-4zm20 0h4v4h-4v-4zm20 0h4v4h-4v-4zm20 0h4v4h-4v-4zm20 0h4v4h-4v-4zm20 0h4v4h-4v-4zm20 0h4v4h-4v-4zm20 0h4v4h-4v-4zm20 0h4v4h-4v-4zm20 0h4v4h-4v-4zm-400 20h4v4h-4v-4zm20 0h4v4h-4v-4zm20 0h4v4h-4v-4zm20 0h4v4h-4v-4zm20 0h4v4h-4v-4zm20 0h4v4h-4v-4zm20 0h4v4h-4v-4zm20 0h4v4h-4v-4zm20 0h4v4h-4v-4zm20 0h4v4h-4v-4zm20 0h4v4h-4v-4zm20 0h4v4h-4v-4zm20 0h4v4h-4v-4zm20 0h4v4h-4v-4zm20 0h4v4h-4v-4zm20 0h4v4h-4v-4zm20 0h4v4h-4v-4zm20 0h4v4h-4v-4zm20 0h4v4h-4v-4zm20 0h4v4h-4v-4zm20 0h4v4h-4v-4zm-400 20h4v4h-4v-4zm20 0h4v4h-4v-4zm20 0h4v4h-4v-4zm20 0h4v4h-4v-4zm20 0h4v4h-4v-4zm20 0h4v4h-4v-4zm20 0h4v4h-4v-4zm20 0h4v4h-4v-4zm20 0h4v4h-4v-4zm20 0h4v4h-4v-4zm20 0h4v4h-4v-4zm20 0h4v4h-4v-4zm20 0h4v4h-4v-4zm20 0h4v4h-4v-4zm20 0h4v4h-4v-4zm20 0h4v4h-4v-4zm20 0h4v4h-4v-4zm20 0h4v4h-4v-4zm20 0h4v4h-4v-4zm20 0h4v4h-4v-4zm20 0h4v4h-4v-4zm-400 20h4v4h-4v-4zm20 0h4v4h-4v-4zm20 0h4v4h-4v-4zm20 0h4v4h-4v-4zm20 0h4v4h-4v-4zm20 0h4v4h-4v-4zm20 0h4v4h-4v-4zm20 0h4v4h-4v-4zm20 0h4v4h-4v-4zm20 0h4v4h-4v-4zm20 0h4v4h-4v-4zm20 0h4v4h-4v-4zm20 0h4v4h-4v-4zm20 0h4v4h-4v-4zm20 0h4v4h-4v-4zm20 0h4v4h-4v-4zm20 0h4v4h-4v-4zm20 0h4v4h-4v-4zm20 0h4v4h-4v-4zm20 0h4v4h-4v-4zm20 0h4v4h-4v-4zm-400 20h4v4h-4v-4zm20 0h4v4h-4v-4zm20 0h4v4h-4v-4zm20 0h4v4h-4v-4zm20 0h4v4h-4v-4zm20 0h4v4h-4v-4zm20 0h4v4h-4v-4zm20 0h4v4h-4v-4zm20 0h4v4h-4v-4zm20 0h4v4h-4v-4zm20 0h4v4h-4v-4zm20 0h4v4h-4v-4zm20 0h4v4h-4v-4zm20 0h4v4h-4v-4zm20 0h4v4h-4v-4zm20 0h4v4h-4v-4zm20 0h4v4h-4v-4zm20 0h4v4h-4v-4zm20 0h4v4h-4v-4zm20 0h4v4h-4v-4zm20 0h4v4h-4v-4z" fill="#EF4444"/>
    <path d="M4.5 0h4v4h-4V0zm20 0h4v4h-4V0zm20 0h4v4h-4V0zm20 0h4v4h-4V0zm20 0h4v4h-4V0zm20 0h4v4h-4V0zm20 0h4v4h-4V0zm20 0h4v4h-4V0zm20 0h4v4h-4V0zm20 0h4v4h-4V0zm20 0h4v4h-4V0zm20 0h4v4h-4V0zm20 0h4v4h-4V0zm20 0h4v4h-4V0zm20 0h4v4h-4V0zm20 0h4v4h-4V0zm20 0h4v4h-4V0zm20 0h4v4h-4V0zm20 0h4v4h-4V0zm20 0h4v4h-4V0zm20 0h4v4h-4V0zM4.5 20h4v4h-4v-4zm20 0h4v4h-4v-4zm20 0h4v4h-4v-4zm20 0h4v4h-4v-4zm20 0h4v4h-4v-4zm20 0h4v4h-4v-4zm20 0h4v4h-4v-4zm20 0h4v4h-4v-4zm20 0h4v4h-4v-4zm20 0h4v4h-4v-4zm20 0h4v4h-4v-4zm20 0h4v4h-4v-4zm20 0h4v4h-4v-4zm20 0h4v4h-4v-4zm20 0h4v4h-4v-4zm20 0h4v4h-4v-4zm20 0h4v4h-4v-4zm20 0h4v4h-4v-4zm20 0h4v4h-4v-4zm20 0h4v4h-4v-4zm20 0h4v4h-4v-4zM4.5 40h4v4h-4v-4zm20 0h4v4h-4v-4zm20 0h4v4h-4v-4zm20 0h4v4h-4v-4zm20 0h4v4h-4v-4zm20 0h4v4h-4v-4zm20 0h4v4h-4v-4zm20 0h4v4h-4v-4zm20 0h4v4h-4v-4zm20 0h4v4h-4v-4zm20 0h4v4h-4v-4zm20 0h4v4h-4v-4zm20 0h4v4h-4v-4zm20 0h4v4h-4v-4zm20 0h4v4h-4v-4zm20 0h4v4h-4v-4zm20 0h4v4h-4v-4zm20 0h4v4h-4v-4zm20 0h4v4h-4v-4zm20 0h4v4h-4v-4zm20 0h4v4h-4v-4zM4.5 60h4v4h-4v-4zm20 0h4v4h-4v-4zm20 0h4v4h-4v-4zm20 0h4v4h-4v-4zm20 0h4v4h-4v-4zm20 0h4v4h-4v-4zm20 0h4v4h-4v-4zm20 0h4v4h-4v-4zm20 0h4v4h-4v-4zm20 0h4v4h-4v-4zm20 0h4v4h-4v-4zm20 0h4v4h-4v-4zm20 0h4v4h-4v-4zm20 0h4v4h-4v-4zm20 0h4v4h-4v-4zm20 0h4v4h-4v-4zm20 0h4v4h-4v-4zm20 0h4v4h-4v-4zm20 0h4v4h-4v-4zm20 0h4v4h-4v-4zm20 0h4v4h-4v-4zM4.5 80h4v4h-4v-4zm20 0h4v4h-4v-4zm20 0h4v4h-4v-4zm20 0h4v4h-4v-4zm20 0h4v4h-4v-4zm20 0h4v4h-4v-4zm20 0h4v4h-4v-4zm20 0h4v4h-4v-4zm20 0h4v4h-4v-4zm20 0h4v4h-4v-4zm20 0h4v4h-4v-4zm20 0h4v4h-4v-4zm20 0h4v4h-4v-4zm20 0h4v4h-4v-4zm20 0h4v4h-4v-4zm20 0h4v4h-4v-4zm20 0h4v4h-4v-4zm20 0h4v4h-4v-4zm20 0h4v4h-4v-4zm20 0h4v4h-4v-4zm20 0h4v4h-4v-4zm-400 20h4v4h-4v-4zm20 0h4v4h-4v-4zm20 0h4v4h-4v-4zm20 0h4v4h-4v-4zm20 0h4v4h-4v-4zm20 0h4v4h-4v-4zm20 0h4v4h-4v-4zm20 0h4v4h-4v-4zm20 0h4v4h-4v-4zm20 0h4v4h-4v-4zm20 0h4v4h-4v-4zm20 0h4v4h-4v-4zm20 0h4v4h-4v-4zm20 0h4v4h-4v-4zm20 0h4v4h-4v-4zm20 0h4v4h-4v-4zm20 0h4v4h-4v-4zm20 0h4v4h-4v-4zm20 0h4v4h-4v-4zm20 0h4v4h-4v-4zm20 0h4v4h-4v-4zm-400 20h4v4h-4v-4zm20 0h4v4h-4v-4zm20 0h4v4h-4v-4zm20 0h4v4h-4v-4zm20 0h4v4h-4v-4zm20 0h4v4h-4v-4zm20 0h4v4h-4v-4zm20 0h4v4h-4v-4zm20 0h4v4h-4v-4zm20 0h4v4h-4v-4zm20 0h4v4h-4v-4zm20 0h4v4h-4v-4zm20 0h4v4h-4v-4zm20 0h4v4h-4v-4zm20 0h4v4h-4v-4zm20 0h4v4h-4v-4zm20 0h4v4h-4v-4zm20 0h4v4h-4v-4zm20 0h4v4h-4v-4zm20 0h4v4h-4v-4zm20 0h4v4h-4v-4zm-400 20h4v4h-4v-4zm20 0h4v4h-4v-4zm20 0h4v4h-4v-4zm20 0h4v4h-4v-4zm20 0h4v4h-4v-4zm20 0h4v4h-4v-4zm20 0h4v4h-4v-4zm20 0h4v4h-4v-4zm20 0h4v4h-4v-4zm20 0h4v4h-4v-4zm20 0h4v4h-4v-4zm20 0h4v4h-4v-4zm20 0h4v4h-4v-4zm20 0h4v4h-4v-4zm20 0h4v4h-4v-4zm20 0h4v4h-4v-4zm20 0h4v4h-4v-4zm20 0h4v4h-4v-4zm20 0h4v4h-4v-4zm20 0h4v4h-4v-4zm20 0h4v4h-4v-4zm-400 20h4v4h-4v-4zm20 0h4v4h-4v-4zm20 0h4v4h-4v-4zm20 0h4v4h-4v-4zm20 0h4v4h-4v-4zm20 0h4v4h-4v-4zm20 0h4v4h-4v-4zm20 0h4v4h-4v-4zm20 0h4v4h-4v-4zm20 0h4v4h-4v-4zm20 0h4v4h-4v-4zm20 0h4v4h-4v-4zm20 0h4v4h-4v-4zm20 0h4v4h-4v-4zm20 0h4v4h-4v-4zm20 0h4v4h-4v-4zm20 0h4v4h-4v-4zm20 0h4v4h-4v-4zm20 0h4v4h-4v-4zm20 0h4v4h-4v-4zm20 0h4v4h-4v-4zm-400 20h4v4h-4v-4zm20 0h4v4h-4v-4zm20 0h4v4h-4v-4zm20 0h4v4h-4v-4zm20 0h4v4h-4v-4zm20 0h4v4h-4v-4zm20 0h4v4h-4v-4zm20 0h4v4h-4v-4zm20 0h4v4h-4v-4zm20 0h4v4h-4v-4zm20 0h4v4h-4v-4zm20 0h4v4h-4v-4zm20 0h4v4h-4v-4zm20 0h4v4h-4v-4zm20 0h4v4h-4v-4zm20 0h4v4h-4v-4zm20 0h4v4h-4v-4zm20 0h4v4h-4v-4zm20 0h4v4h-4v-4zm20 0h4v4h-4v-4zm20 0h4v4h-4v-4zm-400 20h4v4h-4v-4zm20 0h4v4h-4v-4zm20 0h4v4h-4v-4zm20 0h4v4h-4v-4zm20 0h4v4h-4v-4zm20 0h4v4h-4v-4zm20 0h4v4h-4v-4zm20 0h4v4h-4v-4zm20 0h4v4h-4v-4zm20 0h4v4h-4v-4zm20 0h4v4h-4v-4zm20 0h4v4h-4v-4zm20 0h4v4h-4v-4zm20 0h4v4h-4v-4zm20 0h4v4h-4v-4zm20 0h4v4h-4v-4zm20 0h4v4h-4v-4zm20 0h4v4h-4v-4zm20 0h4v4h-4v-4zm20 0h4v4h-4v-4zm20 0h4v4h-4v-4zm-400 20h4v4h-4v-4zm20 0h4v4h-4v-4zm20 0h4v4h-4v-4zm20 0h4v4h-4v-4zm20 0h4v4h-4v-4zm20 0h4v4h-4v-4zm20 0h4v4h-4v-4zm20 0h4v4h-4v-4zm20 0h4v4h-4v-4zm20 0h4v4h-4v-4zm20 0h4v4h-4v-4zm20 0h4v4h-4v-4zm20 0h4v4h-4v-4zm20 0h4v4h-4v-4zm20 0h4v4h-4v-4zm20 0h4v4h-4v-4zm20 0h4v4h-4v-4zm20 0h4v4h-4v-4zm20 0h4v4h-4v-4zm20 0h4v4h-4v-4zm20 0h4v4h-4v-4zm-400 20h4v4h-4v-4zm20 0h4v4h-4v-4zm20 0h4v4h-4v-4zm20 0h4v4h-4v-4zm20 0h4v4h-4v-4zm20 0h4v4h-4v-4zm20 0h4v4h-4v-4zm20 0h4v4h-4v-4zm20 0h4v4h-4v-4zm20 0h4v4h-4v-4zm20 0h4v4h-4v-4zm20 0h4v4h-4v-4zm20 0h4v4h-4v-4zm20 0h4v4h-4v-4zm20 0h4v4h-4v-4zm20 0h4v4h-4v-4zm20 0h4v4h-4v-4zm20 0h4v4h-4v-4zm20 0h4v4h-4v-4zm20 0h4v4h-4v-4zm20 0h4v4h-4v-4zm-400 20h4v4h-4v-4zm20 0h4v4h-4v-4zm20 0h4v4h-4v-4zm20 0h4v4h-4v-4zm20 0h4v4h-4v-4zm20 0h4v4h-4v-4zm20 0h4v4h-4v-4zm20 0h4v4h-4v-4zm20 0h4v4h-4v-4zm20 0h4v4h-4v-4zm20 0h4v4h-4v-4zm20 0h4v4h-4v-4zm20 0h4v4h-4v-4zm20 0h4v4h-4v-4zm20 0h4v4h-4v-4zm20 0h4v4h-4v-4zm20 0h4v4h-4v-4zm20 0h4v4h-4v-4zm20 0h4v4h-4v-4zm20 0h4v4h-4v-4zm20 0h4v4h-4v-4zm-400 20h4v4h-4v-4zm20 0h4v4h-4v-4zm20 0h4v4h-4v-4zm20 0h4v4h-4v-4zm20 0h4v4h-4v-4zm20 0h4v4h-4v-4zm20 0h4v4h-4v-4zm20 0h4v4h-4v-4zm20 0h4v4h-4v-4zm20 0h4v4h-4v-4zm20 0h4v4h-4v-4zm20 0h4v4h-4v-4zm20 0h4v4h-4v-4zm20 0h4v4h-4v-4zm20 0h4v4h-4v-4zm20 0h4v4h-4v-4zm20 0h4v4h-4v-4zm20 0h4v4h-4v-4zm20 0h4v4h-4v-4zm20 0h4v4h-4v-4zm20 0h4v4h-4v-4zm-400 20h4v4h-4v-4zm20 0h4v4h-4v-4zm20 0h4v4h-4v-4zm20 0h4v4h-4v-4zm20 0h4v4h-4v-4zm20 0h4v4h-4v-4zm20 0h4v4h-4v-4zm20 0h4v4h-4v-4zm20 0h4v4h-4v-4zm20 0h4v4h-4v-4zm20 0h4v4h-4v-4zm20 0h4v4h-4v-4zm20 0h4v4h-4v-4zm20 0h4v4h-4v-4zm20 0h4v4h-4v-4zm20 0h4v4h-4v-4zm20 0h4v4h-4v-4zm20 0h4v4h-4v-4zm20 0h4v4h-4v-4zm20 0h4v4h-4v-4zm20 0h4v4h-4v-4zm-400 20h4v4h-4v-4zm20 0h4v4h-4v-4zm20 0h4v4h-4v-4zm20 0h4v4h-4v-4zm20 0h4v4h-4v-4zm20 0h4v4h-4v-4zm20 0h4v4h-4v-4zm20 0h4v4h-4v-4zm20 0h4v4h-4v-4zm20 0h4v4h-4v-4zm20 0h4v4h-4v-4zm20 0h4v4h-4v-4zm20 0h4v4h-4v-4zm20 0h4v4h-4v-4zm20 0h4v4h-4v-4zm20 0h4v4h-4v-4zm20 0h4v4h-4v-4zm20 0h4v4h-4v-4zm20 0h4v4h-4v-4zm20 0h4v4h-4v-4zm20 0h4v4h-4v-4zm-400 20h4v4h-4v-4zm20 0h4v4h-4v-4zm20 0h4v4h-4v-4zm20 0h4v4h-4v-4zm20 0h4v4h-4v-4zm20 0h4v4h-4v-4zm20 0h4v4h-4v-4zm20 0h4v4h-4v-4zm20 0h4v4h-4v-4zm20 0h4v4h-4v-4zm20 0h4v4h-4v-4zm20 0h4v4h-4v-4zm20 0h4v4h-4v-4zm20 0h4v4h-4v-4zm20 0h4v4h-4v-4zm20 0h4v4h-4v-4zm20 0h4v4h-4v-4zm20 0h4v4h-4v-4zm20 0h4v4h-4v-4zm20 0h4v4h-4v-4zm20 0h4v4h-4v-4zm-400 20h4v4h-4v-4zm20 0h4v4h-4v-4zm20 0h4v4h-4v-4zm20 0h4v4h-4v-4zm20 0h4v4h-4v-4zm20 0h4v4h-4v-4zm20 0h4v4h-4v-4zm20 0h4v4h-4v-4zm20 0h4v4h-4v-4zm20 0h4v4h-4v-4zm20 0h4v4h-4v-4zm20 0h4v4h-4v-4zm20 0h4v4h-4v-4zm20 0h4v4h-4v-4zm20 0h4v4h-4v-4zm20 0h4v4h-4v-4zm20 0h4v4h-4v-4zm20 0h4v4h-4v-4zm20 0h4v4h-4v-4zm20 0h4v4h-4v-4zm20 0h4v4h-4v-4zm-400 20h4v4h-4v-4zm20 0h4v4h-4v-4zm20 0h4v4h-4v-4zm20 0h4v4h-4v-4zm20 0h4v4h-4v-4zm20 0h4v4h-4v-4zm20 0h4v4h-4v-4zm20 0h4v4h-4v-4zm20 0h4v4h-4v-4zm20 0h4v4h-4v-4zm20 0h4v4h-4v-4zm20 0h4v4h-4v-4zm20 0h4v4h-4v-4zm20 0h4v4h-4v-4zm20 0h4v4h-4v-4zm20 0h4v4h-4v-4zm20 0h4v4h-4v-4zm20 0h4v4h-4v-4zm20 0h4v4h-4v-4zm20 0h4v4h-4v-4zm20 0h4v4h-4v-4zm-400 20h4v4h-4v-4zm20 0h4v4h-4v-4zm20 0h4v4h-4v-4zm20 0h4v4h-4v-4zm20 0h4v4h-4v-4zm20 0h4v4h-4v-4zm20 0h4v4h-4v-4zm20 0h4v4h-4v-4zm20 0h4v4h-4v-4zm20 0h4v4h-4v-4zm20 0h4v4h-4v-4zm20 0h4v4h-4v-4zm20 0h4v4h-4v-4zm20 0h4v4h-4v-4zm20 0h4v4h-4v-4zm20 0h4v4h-4v-4zm20 0h4v4h-4v-4zm20 0h4v4h-4v-4zm20 0h4v4h-4v-4zm20 0h4v4h-4v-4zm20 0h4v4h-4v-4z" stroke="#000" stroke-width="2" mask="url(#g-2Nd0dD5b)"/>
  </g>
  <defs>
    <filter id="g-2Nd0dD5a" x=".5" y="0" width="412" height="412" filterUnits="userSpaceOnUse" color-interpolation-filters="sRGB">
      <feFlood flood-opacity="0" result="BackgroundImageFix"/>
      <feColorMatrix in="SourceAlpha" values="0 0 0 0 0 0 0 0 0 0 0 0 0 0 0 0 0 0 127 0"/>
      <feOffset dy="4"/>
      <feGaussianBlur stdDeviation="2"/>
      <feColorMatrix values="0 0 0 0 0 0 0 0 0 0 0 0 0 0 0 0 0 0 0.25 0"/>
      <feBlend in2="BackgroundImageFix" result="effect1_dropShadow"/>
      <feBlend in="SourceGraphic" in2="effect1_dropShadow" result="shape"/>
    </filter>
  </defs>
</svg>
